<mxfile host="65bd71144e">
    <diagram id="kml0LnoXrzK-RS6wHUvi" name="Page-1">
        <mxGraphModel dx="1060" dy="1414" grid="0" gridSize="10" guides="1" tooltips="1" connect="1" arrows="1" fold="1" page="1" pageScale="1" pageWidth="850" pageHeight="1100" math="0" shadow="0">
            <root>
                <mxCell id="0"/>
                <mxCell id="1" parent="0"/>
                <mxCell id="20" value="" style="group;fontStyle=0" vertex="1" connectable="0" parent="1">
                    <mxGeometry x="200" y="150" width="540" height="35" as="geometry"/>
                </mxCell>
                <mxCell id="2" value="item" style="text;html=1;strokeColor=none;fillColor=none;align=center;verticalAlign=middle;whiteSpace=wrap;rounded=0;" vertex="1" parent="20">
                    <mxGeometry y="2.5" width="60" height="30" as="geometry"/>
                </mxCell>
                <mxCell id="3" value="&lt;u&gt;item_id&lt;/u&gt;" style="rounded=0;whiteSpace=wrap;html=1;" vertex="1" parent="20">
                    <mxGeometry x="60" width="90" height="35" as="geometry"/>
                </mxCell>
                <mxCell id="4" value="item_name" style="rounded=0;whiteSpace=wrap;html=1;" vertex="1" parent="20">
                    <mxGeometry x="150" width="90" height="35" as="geometry"/>
                </mxCell>
                <mxCell id="5" value="sell_price" style="rounded=0;whiteSpace=wrap;html=1;" vertex="1" parent="20">
                    <mxGeometry x="240" width="90" height="35" as="geometry"/>
                </mxCell>
                <mxCell id="6" value="current_stock" style="rounded=0;whiteSpace=wrap;html=1;" vertex="1" parent="20">
                    <mxGeometry x="330" width="90" height="35" as="geometry"/>
                </mxCell>
                <mxCell id="12" value="minimum_stock_level" style="rounded=0;whiteSpace=wrap;html=1;" vertex="1" parent="20">
                    <mxGeometry x="420" width="120" height="35" as="geometry"/>
                </mxCell>
                <mxCell id="43" value="" style="group" vertex="1" connectable="0" parent="1">
                    <mxGeometry x="200" y="290" width="600" height="35" as="geometry"/>
                </mxCell>
                <mxCell id="13" value="ware_name" style="rounded=0;whiteSpace=wrap;html=1;" vertex="1" parent="43">
                    <mxGeometry x="510" width="90" height="35" as="geometry"/>
                </mxCell>
                <mxCell id="30" value="warehouse" style="text;html=1;strokeColor=none;fillColor=none;align=center;verticalAlign=middle;whiteSpace=wrap;rounded=0;" vertex="1" parent="43">
                    <mxGeometry y="2.5" width="60" height="30" as="geometry"/>
                </mxCell>
                <mxCell id="31" value="&lt;u&gt;ware_id&lt;/u&gt;" style="rounded=0;whiteSpace=wrap;html=1;" vertex="1" parent="43">
                    <mxGeometry x="60" width="90" height="35" as="geometry"/>
                </mxCell>
                <mxCell id="32" value="sqft" style="rounded=0;whiteSpace=wrap;html=1;" vertex="1" parent="43">
                    <mxGeometry x="150" width="90" height="35" as="geometry"/>
                </mxCell>
                <mxCell id="33" value="state" style="rounded=0;whiteSpace=wrap;html=1;" vertex="1" parent="43">
                    <mxGeometry x="240" width="90" height="35" as="geometry"/>
                </mxCell>
                <mxCell id="34" value="city" style="rounded=0;whiteSpace=wrap;html=1;" vertex="1" parent="43">
                    <mxGeometry x="330" width="90" height="35" as="geometry"/>
                </mxCell>
                <mxCell id="35" value="street" style="rounded=0;whiteSpace=wrap;html=1;" vertex="1" parent="43">
                    <mxGeometry x="420" width="90" height="35" as="geometry"/>
                </mxCell>
                <mxCell id="44" value="" style="group" vertex="1" connectable="0" parent="1">
                    <mxGeometry x="200" y="360" width="240" height="35" as="geometry"/>
                </mxCell>
                <mxCell id="37" value="works_at" style="text;html=1;strokeColor=none;fillColor=none;align=center;verticalAlign=middle;whiteSpace=wrap;rounded=0;" vertex="1" parent="44">
                    <mxGeometry y="2.5" width="60" height="30" as="geometry"/>
                </mxCell>
                <mxCell id="38" value="&lt;u&gt;ssn&lt;/u&gt;" style="rounded=0;whiteSpace=wrap;html=1;" vertex="1" parent="44">
                    <mxGeometry x="60" width="90" height="35" as="geometry"/>
                </mxCell>
                <mxCell id="39" value="&lt;u&gt;ware_id&lt;/u&gt;" style="rounded=0;whiteSpace=wrap;html=1;" vertex="1" parent="44">
                    <mxGeometry x="150" width="90" height="35" as="geometry"/>
                </mxCell>
                <mxCell id="53" value="" style="group" vertex="1" connectable="0" parent="1">
                    <mxGeometry x="190" y="500" width="430" height="35" as="geometry"/>
                </mxCell>
                <mxCell id="23" value="sales record" style="text;html=1;strokeColor=none;fillColor=none;align=center;verticalAlign=middle;whiteSpace=wrap;rounded=0;" vertex="1" parent="53">
                    <mxGeometry y="2.5" width="70" height="30" as="geometry"/>
                </mxCell>
                <mxCell id="24" value="&lt;u&gt;sale_id&lt;/u&gt;" style="rounded=0;whiteSpace=wrap;html=1;" vertex="1" parent="53">
                    <mxGeometry x="70" width="90" height="35" as="geometry"/>
                </mxCell>
                <mxCell id="25" value="item_name" style="rounded=0;whiteSpace=wrap;html=1;" vertex="1" parent="53">
                    <mxGeometry x="160" width="90" height="35" as="geometry"/>
                </mxCell>
                <mxCell id="26" value="&lt;span&gt;item_id&lt;/span&gt;" style="rounded=0;whiteSpace=wrap;html=1;fontStyle=0" vertex="1" parent="53">
                    <mxGeometry x="250" width="90" height="35" as="geometry"/>
                </mxCell>
                <mxCell id="27" value="date_sold" style="rounded=0;whiteSpace=wrap;html=1;" vertex="1" parent="53">
                    <mxGeometry x="340" width="90" height="35" as="geometry"/>
                </mxCell>
                <mxCell id="64" value="" style="group" vertex="1" connectable="0" parent="1">
                    <mxGeometry x="190" y="570" width="530" height="35" as="geometry"/>
                </mxCell>
                <mxCell id="56" value="supplied_item" style="text;html=1;strokeColor=none;fillColor=none;align=center;verticalAlign=middle;whiteSpace=wrap;rounded=0;" vertex="1" parent="64">
                    <mxGeometry y="2.5" width="60" height="30" as="geometry"/>
                </mxCell>
                <mxCell id="57" value="&lt;u&gt;supplied_item_id&lt;/u&gt;" style="rounded=0;whiteSpace=wrap;html=1;" vertex="1" parent="64">
                    <mxGeometry x="70" width="100" height="35" as="geometry"/>
                </mxCell>
                <mxCell id="58" value="item_id" style="rounded=0;whiteSpace=wrap;html=1;" vertex="1" parent="64">
                    <mxGeometry x="170" width="90" height="35" as="geometry"/>
                </mxCell>
                <mxCell id="59" value="vendor_id" style="rounded=0;whiteSpace=wrap;html=1;" vertex="1" parent="64">
                    <mxGeometry x="260" width="90" height="35" as="geometry"/>
                </mxCell>
                <mxCell id="60" value="vendor_price" style="rounded=0;whiteSpace=wrap;html=1;" vertex="1" parent="64">
                    <mxGeometry x="350" width="90" height="35" as="geometry"/>
                </mxCell>
                <mxCell id="61" value="quantity" style="rounded=0;whiteSpace=wrap;html=1;" vertex="1" parent="64">
                    <mxGeometry x="440" width="90" height="35" as="geometry"/>
                </mxCell>
                <mxCell id="84" value="" style="group" vertex="1" connectable="0" parent="1">
                    <mxGeometry x="200" y="640" width="690" height="35" as="geometry"/>
                </mxCell>
                <mxCell id="75" value="zip_code" style="rounded=0;whiteSpace=wrap;html=1;" vertex="1" parent="84">
                    <mxGeometry x="510" width="90" height="35" as="geometry"/>
                </mxCell>
                <mxCell id="76" value="vendor" style="text;html=1;strokeColor=none;fillColor=none;align=center;verticalAlign=middle;whiteSpace=wrap;rounded=0;" vertex="1" parent="84">
                    <mxGeometry y="2.5" width="60" height="30" as="geometry"/>
                </mxCell>
                <mxCell id="77" value="vendor_id" style="rounded=0;whiteSpace=wrap;html=1;" vertex="1" parent="84">
                    <mxGeometry x="60" width="90" height="35" as="geometry"/>
                </mxCell>
                <mxCell id="78" value="vendor_name" style="rounded=0;whiteSpace=wrap;html=1;" vertex="1" parent="84">
                    <mxGeometry x="150" width="90" height="35" as="geometry"/>
                </mxCell>
                <mxCell id="79" value="city" style="rounded=0;whiteSpace=wrap;html=1;" vertex="1" parent="84">
                    <mxGeometry x="240" width="90" height="35" as="geometry"/>
                </mxCell>
                <mxCell id="80" value="state" style="rounded=0;whiteSpace=wrap;html=1;" vertex="1" parent="84">
                    <mxGeometry x="330" width="90" height="35" as="geometry"/>
                </mxCell>
                <mxCell id="81" value="street" style="rounded=0;whiteSpace=wrap;html=1;" vertex="1" parent="84">
                    <mxGeometry x="420" width="90" height="35" as="geometry"/>
                </mxCell>
                <mxCell id="83" value="apt_code" style="rounded=0;whiteSpace=wrap;html=1;" vertex="1" parent="84">
                    <mxGeometry x="600" width="90" height="35" as="geometry"/>
                </mxCell>
                <mxCell id="92" value="" style="group" vertex="1" connectable="0" parent="1">
                    <mxGeometry x="200" y="222.5" width="330" height="35" as="geometry"/>
                </mxCell>
                <mxCell id="14" value="stored_in" style="text;html=1;strokeColor=none;fillColor=none;align=center;verticalAlign=middle;whiteSpace=wrap;rounded=0;" vertex="1" parent="92">
                    <mxGeometry width="60" height="30" as="geometry"/>
                </mxCell>
                <mxCell id="15" value="stock_in_ware" style="rounded=0;whiteSpace=wrap;html=1;" vertex="1" parent="92">
                    <mxGeometry x="240" width="90" height="35" as="geometry"/>
                </mxCell>
                <mxCell id="16" value="&lt;u&gt;item_id&lt;/u&gt;" style="rounded=0;whiteSpace=wrap;html=1;" vertex="1" parent="92">
                    <mxGeometry x="60" width="90" height="35" as="geometry"/>
                </mxCell>
                <mxCell id="17" value="&lt;u&gt;ware_id&lt;/u&gt;" style="rounded=0;whiteSpace=wrap;html=1;" vertex="1" parent="92">
                    <mxGeometry x="150" width="90" height="35" as="geometry"/>
                </mxCell>
                <mxCell id="93" value="" style="group" vertex="1" connectable="0" parent="1">
                    <mxGeometry x="200" y="430" width="1230" height="35" as="geometry"/>
                </mxCell>
                <mxCell id="46" value="city" style="rounded=0;whiteSpace=wrap;html=1;" vertex="1" parent="93">
                    <mxGeometry x="510" width="90" height="35" as="geometry"/>
                </mxCell>
                <mxCell id="47" value="employee" style="text;html=1;strokeColor=none;fillColor=none;align=center;verticalAlign=middle;whiteSpace=wrap;rounded=0;" vertex="1" parent="93">
                    <mxGeometry y="2.5" width="60" height="30" as="geometry"/>
                </mxCell>
                <mxCell id="48" value="&lt;u&gt;ssn&lt;/u&gt;" style="rounded=0;whiteSpace=wrap;html=1;" vertex="1" parent="93">
                    <mxGeometry x="60" width="90" height="35" as="geometry"/>
                </mxCell>
                <mxCell id="49" value="fname" style="rounded=0;whiteSpace=wrap;html=1;" vertex="1" parent="93">
                    <mxGeometry x="150" width="90" height="35" as="geometry"/>
                </mxCell>
                <mxCell id="50" value="lname" style="rounded=0;whiteSpace=wrap;html=1;" vertex="1" parent="93">
                    <mxGeometry x="240" width="90" height="35" as="geometry"/>
                </mxCell>
                <mxCell id="51" value="username" style="rounded=0;whiteSpace=wrap;html=1;" vertex="1" parent="93">
                    <mxGeometry x="330" width="90" height="35" as="geometry"/>
                </mxCell>
                <mxCell id="52" value="password" style="rounded=0;whiteSpace=wrap;html=1;" vertex="1" parent="93">
                    <mxGeometry x="420" width="90" height="35" as="geometry"/>
                </mxCell>
                <mxCell id="85" value="state" style="rounded=0;whiteSpace=wrap;html=1;" vertex="1" parent="93">
                    <mxGeometry x="600" width="90" height="35" as="geometry"/>
                </mxCell>
                <mxCell id="86" value="street" style="rounded=0;whiteSpace=wrap;html=1;" vertex="1" parent="93">
                    <mxGeometry x="690" width="90" height="35" as="geometry"/>
                </mxCell>
                <mxCell id="87" value="zip_code" style="rounded=0;whiteSpace=wrap;html=1;" vertex="1" parent="93">
                    <mxGeometry x="780" width="90" height="35" as="geometry"/>
                </mxCell>
                <mxCell id="88" value="apt_code" style="rounded=0;whiteSpace=wrap;html=1;" vertex="1" parent="93">
                    <mxGeometry x="870" width="90" height="35" as="geometry"/>
                </mxCell>
                <mxCell id="89" value="job_title" style="rounded=0;whiteSpace=wrap;html=1;" vertex="1" parent="93">
                    <mxGeometry x="960" width="90" height="35" as="geometry"/>
                </mxCell>
                <mxCell id="90" value="auth_level" style="rounded=0;whiteSpace=wrap;html=1;" vertex="1" parent="93">
                    <mxGeometry x="1050" width="90" height="35" as="geometry"/>
                </mxCell>
                <mxCell id="91" value="token" style="rounded=0;whiteSpace=wrap;html=1;" vertex="1" parent="93">
                    <mxGeometry x="1140" width="90" height="35" as="geometry"/>
                </mxCell>
                <mxCell id="112" value="" style="group" vertex="1" connectable="0" parent="1">
                    <mxGeometry x="200" y="780" width="250" height="35" as="geometry"/>
                </mxCell>
                <mxCell id="106" value="supplies" style="text;html=1;strokeColor=none;fillColor=none;align=center;verticalAlign=middle;whiteSpace=wrap;rounded=0;" vertex="1" parent="112">
                    <mxGeometry y="2.5" width="60" height="30" as="geometry"/>
                </mxCell>
                <mxCell id="107" value="&lt;u&gt;supplied_item_id&lt;/u&gt;" style="rounded=0;whiteSpace=wrap;html=1;" vertex="1" parent="112">
                    <mxGeometry x="60" width="100" height="35" as="geometry"/>
                </mxCell>
                <mxCell id="108" value="&lt;u&gt;ware_id&lt;/u&gt;" style="rounded=0;whiteSpace=wrap;html=1;" vertex="1" parent="112">
                    <mxGeometry x="160" width="90" height="35" as="geometry"/>
                </mxCell>
                <mxCell id="113" value="" style="group" vertex="1" connectable="0" parent="1">
                    <mxGeometry x="180" y="710" width="260" height="35" as="geometry"/>
                </mxCell>
                <mxCell id="98" value="purchase_order" style="text;html=1;strokeColor=none;fillColor=none;align=center;verticalAlign=middle;whiteSpace=wrap;rounded=0;" vertex="1" parent="113">
                    <mxGeometry y="2.5" width="60" height="30" as="geometry"/>
                </mxCell>
                <mxCell id="99" value="&lt;u&gt;po_id&lt;/u&gt;" style="rounded=0;whiteSpace=wrap;html=1;" vertex="1" parent="113">
                    <mxGeometry x="80" width="90" height="35" as="geometry"/>
                </mxCell>
                <mxCell id="100" value="purchase_date" style="rounded=0;whiteSpace=wrap;html=1;" vertex="1" parent="113">
                    <mxGeometry x="170" width="90" height="35" as="geometry"/>
                </mxCell>
                <mxCell id="115" value="" style="group" vertex="1" connectable="0" parent="1">
                    <mxGeometry x="180" y="850" width="270" height="35" as="geometry"/>
                </mxCell>
                <mxCell id="109" value="purchased_from" style="text;html=1;strokeColor=none;fillColor=none;align=center;verticalAlign=middle;whiteSpace=wrap;rounded=0;" vertex="1" parent="115">
                    <mxGeometry y="2.5" width="60" height="30" as="geometry"/>
                </mxCell>
                <mxCell id="110" value="&lt;u&gt;vendor_id&lt;/u&gt;" style="rounded=0;whiteSpace=wrap;html=1;" vertex="1" parent="115">
                    <mxGeometry x="80" width="100" height="35" as="geometry"/>
                </mxCell>
                <mxCell id="111" value="&lt;u&gt;po_id&lt;/u&gt;" style="rounded=0;whiteSpace=wrap;html=1;" vertex="1" parent="115">
                    <mxGeometry x="180" width="90" height="35" as="geometry"/>
                </mxCell>
                <mxCell id="123" value="" style="group" vertex="1" connectable="0" parent="1">
                    <mxGeometry x="180" y="920" width="380" height="35" as="geometry"/>
                </mxCell>
                <mxCell id="116" value="" style="group" vertex="1" connectable="0" parent="123">
                    <mxGeometry width="280" height="35" as="geometry"/>
                </mxCell>
                <mxCell id="117" value="item_from" style="text;html=1;strokeColor=none;fillColor=none;align=center;verticalAlign=middle;whiteSpace=wrap;rounded=0;" vertex="1" parent="116">
                    <mxGeometry y="2.5" width="60" height="30" as="geometry"/>
                </mxCell>
                <mxCell id="118" value="&lt;u&gt;item_from_key&lt;/u&gt;" style="rounded=0;whiteSpace=wrap;html=1;" vertex="1" parent="116">
                    <mxGeometry x="80" width="100" height="35" as="geometry"/>
                </mxCell>
                <mxCell id="119" value="supplied_item_id" style="rounded=0;whiteSpace=wrap;html=1;" vertex="1" parent="116">
                    <mxGeometry x="180" width="100" height="35" as="geometry"/>
                </mxCell>
                <mxCell id="122" value="po_id" style="rounded=0;whiteSpace=wrap;html=1;" vertex="1" parent="123">
                    <mxGeometry x="280" width="100" height="35" as="geometry"/>
                </mxCell>
                <mxCell id="124" style="edgeStyle=none;html=1;exitX=0.5;exitY=0;exitDx=0;exitDy=0;entryX=0.5;entryY=1;entryDx=0;entryDy=0;" edge="1" parent="1" source="122" target="99">
                    <mxGeometry relative="1" as="geometry">
                        <Array as="points">
                            <mxPoint x="510" y="760"/>
                            <mxPoint x="305" y="760"/>
                        </Array>
                    </mxGeometry>
                </mxCell>
                <mxCell id="125" style="edgeStyle=none;html=1;exitX=0.5;exitY=0;exitDx=0;exitDy=0;entryX=0.5;entryY=1;entryDx=0;entryDy=0;" edge="1" parent="1" source="119" target="57">
                    <mxGeometry relative="1" as="geometry">
                        <Array as="points">
                            <mxPoint x="410" y="910"/>
                            <mxPoint x="140" y="910"/>
                            <mxPoint x="140" y="620"/>
                            <mxPoint x="310" y="620"/>
                        </Array>
                    </mxGeometry>
                </mxCell>
                <mxCell id="126" style="edgeStyle=none;html=1;exitX=0.5;exitY=0;exitDx=0;exitDy=0;entryX=0.5;entryY=1;entryDx=0;entryDy=0;" edge="1" parent="1" source="110" target="77">
                    <mxGeometry relative="1" as="geometry">
                        <Array as="points">
                            <mxPoint x="310" y="830"/>
                            <mxPoint x="160" y="830"/>
                            <mxPoint x="160" y="690"/>
                            <mxPoint x="305" y="690"/>
                        </Array>
                    </mxGeometry>
                </mxCell>
                <mxCell id="127" style="edgeStyle=none;html=1;exitX=0.5;exitY=0;exitDx=0;exitDy=0;entryX=0.75;entryY=1;entryDx=0;entryDy=0;" edge="1" parent="1" source="111" target="99">
                    <mxGeometry relative="1" as="geometry">
                        <Array as="points">
                            <mxPoint x="405" y="830"/>
                            <mxPoint x="470" y="830"/>
                            <mxPoint x="470" y="770"/>
                            <mxPoint x="328" y="770"/>
                        </Array>
                    </mxGeometry>
                </mxCell>
                <mxCell id="129" style="edgeStyle=none;html=1;exitX=0.5;exitY=0;exitDx=0;exitDy=0;entryX=0.25;entryY=1;entryDx=0;entryDy=0;" edge="1" parent="1" source="107" target="57">
                    <mxGeometry relative="1" as="geometry">
                        <Array as="points">
                            <mxPoint x="310" y="770"/>
                            <mxPoint x="100" y="770"/>
                            <mxPoint x="100" y="630"/>
                            <mxPoint x="285" y="630"/>
                        </Array>
                    </mxGeometry>
                </mxCell>
                <mxCell id="130" style="edgeStyle=none;html=1;exitX=0.5;exitY=0;exitDx=0;exitDy=0;entryX=0.5;entryY=1;entryDx=0;entryDy=0;" edge="1" parent="1" source="108" target="31">
                    <mxGeometry relative="1" as="geometry">
                        <Array as="points">
                            <mxPoint x="405" y="750"/>
                            <mxPoint x="40" y="750"/>
                            <mxPoint x="40" y="340"/>
                            <mxPoint x="305" y="340"/>
                        </Array>
                    </mxGeometry>
                </mxCell>
                <mxCell id="131" style="edgeStyle=none;html=1;exitX=0.25;exitY=1;exitDx=0;exitDy=0;entryX=0.772;entryY=-0.009;entryDx=0;entryDy=0;entryPerimeter=0;" edge="1" parent="1" source="59" target="77">
                    <mxGeometry relative="1" as="geometry">
                        <Array as="points">
                            <mxPoint x="473" y="620"/>
                            <mxPoint x="400" y="620"/>
                            <mxPoint x="330" y="620"/>
                        </Array>
                    </mxGeometry>
                </mxCell>
                <mxCell id="132" style="edgeStyle=none;html=1;exitX=0.5;exitY=0;exitDx=0;exitDy=0;entryX=0.5;entryY=1;entryDx=0;entryDy=0;" edge="1" parent="1" source="58" target="3">
                    <mxGeometry relative="1" as="geometry">
                        <Array as="points">
                            <mxPoint x="405" y="550"/>
                            <mxPoint x="100" y="550"/>
                            <mxPoint x="100" y="200"/>
                            <mxPoint x="305" y="200"/>
                        </Array>
                    </mxGeometry>
                </mxCell>
                <mxCell id="133" style="edgeStyle=none;html=1;exitX=0.75;exitY=0;exitDx=0;exitDy=0;entryX=0.75;entryY=1;entryDx=0;entryDy=0;" edge="1" parent="1" source="16" target="3">
                    <mxGeometry relative="1" as="geometry"/>
                </mxCell>
                <mxCell id="134" style="edgeStyle=none;html=1;exitX=0.25;exitY=1;exitDx=0;exitDy=0;" edge="1" parent="1" source="17">
                    <mxGeometry relative="1" as="geometry">
                        <mxPoint x="330" y="290" as="targetPoint"/>
                        <Array as="points">
                            <mxPoint x="370" y="270"/>
                            <mxPoint x="330" y="270"/>
                        </Array>
                    </mxGeometry>
                </mxCell>
                <mxCell id="135" style="edgeStyle=none;html=1;exitX=0.5;exitY=0;exitDx=0;exitDy=0;entryX=0.25;entryY=1;entryDx=0;entryDy=0;" edge="1" parent="1" source="26" target="3">
                    <mxGeometry relative="1" as="geometry">
                        <Array as="points">
                            <mxPoint x="485" y="480"/>
                            <mxPoint x="140" y="480"/>
                            <mxPoint x="140" y="210"/>
                            <mxPoint x="283" y="210"/>
                        </Array>
                    </mxGeometry>
                </mxCell>
                <mxCell id="136" style="edgeStyle=none;html=1;exitX=0.25;exitY=0;exitDx=0;exitDy=0;entryX=0.75;entryY=1;entryDx=0;entryDy=0;" edge="1" parent="1" source="39" target="31">
                    <mxGeometry relative="1" as="geometry">
                        <Array as="points">
                            <mxPoint x="373" y="340"/>
                            <mxPoint x="328" y="340"/>
                        </Array>
                    </mxGeometry>
                </mxCell>
            </root>
        </mxGraphModel>
    </diagram>
</mxfile>